<svg height="1934" width="720" xmlns="http://www.w3.org/2000/svg">
<rect height="1934" fill="#555" width="720"></rect>
<text fill="#7f7" font-family="Courier New" font-size="12" xml:space="preserve">
<tspan x="10" y="26">17 megabytes installed</tspan>
<tspan x="10" y="42"></tspan>
<tspan x="10" y="58">node_modules</tspan>
<tspan x="10" y="74">└─┬ juice@4.0.2 </tspan>
<tspan x="10" y="90">  ├─┬ cheerio@0.22.0 </tspan>
<tspan x="10" y="106">  │ ├─┬ css-select@1.2.0 </tspan>
<tspan x="10" y="122">  │ │ ├── boolbase@1.0.0 </tspan>
<tspan x="10" y="138">  │ │ ├── css-what@2.1.0 </tspan>
<tspan x="10" y="154">  │ │ ├── domutils@1.5.1 </tspan>
<tspan x="10" y="170">  │ │ └── nth-check@1.0.1 </tspan>
<tspan x="10" y="186">  │ ├─┬ dom-serializer@0.1.0 </tspan>
<tspan x="10" y="202">  │ │ └── domelementtype@1.1.3 </tspan>
<tspan x="10" y="218">  │ ├── entities@1.1.1 </tspan>
<tspan x="10" y="234">  │ ├─┬ htmlparser2@3.9.2 </tspan>
<tspan x="10" y="250">  │ │ ├── domelementtype@1.3.0 </tspan>
<tspan x="10" y="266">  │ │ ├── domhandler@2.3.0 </tspan>
<tspan x="10" y="282">  │ │ ├── inherits@2.0.3 </tspan>
<tspan x="10" y="298">  │ │ └─┬ readable-stream@2.2.9 </tspan>
<tspan x="10" y="314">  │ │   ├── buffer-shims@1.0.0 </tspan>
<tspan x="10" y="330">  │ │   ├── core-util-is@1.0.2 </tspan>
<tspan x="10" y="346">  │ │   ├── isarray@1.0.0 </tspan>
<tspan x="10" y="362">  │ │   ├── process-nextick-args@1.0.7 </tspan>
<tspan x="10" y="378">  │ │   ├── string_decoder@1.0.0 </tspan>
<tspan x="10" y="394">  │ │   └── util-deprecate@1.0.2 </tspan>
<tspan x="10" y="410">  │ ├── lodash.assignin@4.2.0 </tspan>
<tspan x="10" y="426">  │ ├── lodash.bind@4.2.1 </tspan>
<tspan x="10" y="442">  │ ├── lodash.defaults@4.2.0 </tspan>
<tspan x="10" y="458">  │ ├── lodash.filter@4.6.0 </tspan>
<tspan x="10" y="474">  │ ├── lodash.flatten@4.4.0 </tspan>
<tspan x="10" y="490">  │ ├── lodash.foreach@4.5.0 </tspan>
<tspan x="10" y="506">  │ ├── lodash.map@4.6.0 </tspan>
<tspan x="10" y="522">  │ ├── lodash.merge@4.6.0 </tspan>
<tspan x="10" y="538">  │ ├── lodash.pick@4.4.0 </tspan>
<tspan x="10" y="554">  │ ├── lodash.reduce@4.6.0 </tspan>
<tspan x="10" y="570">  │ ├── lodash.reject@4.6.0 </tspan>
<tspan x="10" y="586">  │ └── lodash.some@4.6.0 </tspan>
<tspan x="10" y="602">  ├─┬ commander@2.9.0 </tspan>
<tspan x="10" y="618">  │ └── graceful-readlink@1.0.1 </tspan>
<tspan x="10" y="634">  ├─┬ cross-spawn@5.1.0 </tspan>
<tspan x="10" y="650">  │ ├─┬ lru-cache@4.0.2 </tspan>
<tspan x="10" y="666">  │ │ ├── pseudomap@1.0.2 </tspan>
<tspan x="10" y="682">  │ │ └── yallist@2.1.2 </tspan>
<tspan x="10" y="698">  │ ├─┬ shebang-command@1.2.0 </tspan>
<tspan x="10" y="714">  │ │ └── shebang-regex@1.0.0 </tspan>
<tspan x="10" y="730">  │ └─┬ which@1.2.14 </tspan>
<tspan x="10" y="746">  │   └── isexe@2.0.0 </tspan>
<tspan x="10" y="762">  ├── deep-extend@0.4.1 </tspan>
<tspan x="10" y="778">  ├── mensch@0.3.3 </tspan>
<tspan x="10" y="794">  ├── slick@1.12.2 </tspan>
<tspan x="10" y="810">  └─┬ web-resource-inliner@4.1.0 </tspan>
<tspan x="10" y="826">    ├─┬ async@2.3.0 </tspan>
<tspan x="10" y="842">    │ └── lodash@4.17.4 </tspan>
<tspan x="10" y="858">    ├─┬ chalk@1.1.3 </tspan>
<tspan x="10" y="874">    │ ├── ansi-styles@2.2.1 </tspan>
<tspan x="10" y="890">    │ ├── escape-string-regexp@1.0.5 </tspan>
<tspan x="10" y="906">    │ ├─┬ has-ansi@2.0.0 </tspan>
<tspan x="10" y="922">    │ │ └── ansi-regex@2.1.1 </tspan>
<tspan x="10" y="938">    │ ├── strip-ansi@3.0.1 </tspan>
<tspan x="10" y="954">    │ └── supports-color@2.0.0 </tspan>
<tspan x="10" y="970">    ├─┬ datauri@1.0.5 </tspan>
<tspan x="10" y="986">    │ ├── image-size@0.3.5 </tspan>
<tspan x="10" y="1002">    │ ├── mimer@0.2.1 </tspan>
<tspan x="10" y="1018">    │ └── semver@5.3.0 </tspan>
<tspan x="10" y="1034">    ├── lodash.unescape@4.0.1 </tspan>
<tspan x="10" y="1050">    ├─┬ request@2.81.0 </tspan>
<tspan x="10" y="1066">    │ ├── aws-sign2@0.6.0 </tspan>
<tspan x="10" y="1082">    │ ├── aws4@1.6.0 </tspan>
<tspan x="10" y="1098">    │ ├── caseless@0.12.0 </tspan>
<tspan x="10" y="1114">    │ ├─┬ combined-stream@1.0.5 </tspan>
<tspan x="10" y="1130">    │ │ └── delayed-stream@1.0.0 </tspan>
<tspan x="10" y="1146">    │ ├── extend@3.0.0 </tspan>
<tspan x="10" y="1162">    │ ├── forever-agent@0.6.1 </tspan>
<tspan x="10" y="1178">    │ ├─┬ form-data@2.1.4 </tspan>
<tspan x="10" y="1194">    │ │ └── asynckit@0.4.0 </tspan>
<tspan x="10" y="1210">    │ ├─┬ har-validator@4.2.1 </tspan>
<tspan x="10" y="1226">    │ │ ├─┬ ajv@4.11.7 </tspan>
<tspan x="10" y="1242">    │ │ │ ├── co@4.6.0 </tspan>
<tspan x="10" y="1258">    │ │ │ └─┬ json-stable-stringify@1.0.1 </tspan>
<tspan x="10" y="1274">    │ │ │   └── jsonify@0.0.0 </tspan>
<tspan x="10" y="1290">    │ │ └── har-schema@1.0.5 </tspan>
<tspan x="10" y="1306">    │ ├─┬ hawk@3.1.3 </tspan>
<tspan x="10" y="1322">    │ │ ├── boom@2.10.1 </tspan>
<tspan x="10" y="1338">    │ │ ├── cryptiles@2.0.5 </tspan>
<tspan x="10" y="1354">    │ │ ├── hoek@2.16.3 </tspan>
<tspan x="10" y="1370">    │ │ └── sntp@1.0.9 </tspan>
<tspan x="10" y="1386">    │ ├─┬ http-signature@1.1.1 </tspan>
<tspan x="10" y="1402">    │ │ ├── assert-plus@0.2.0 </tspan>
<tspan x="10" y="1418">    │ │ ├─┬ jsprim@1.4.0 </tspan>
<tspan x="10" y="1434">    │ │ │ ├── assert-plus@1.0.0 </tspan>
<tspan x="10" y="1450">    │ │ │ ├── extsprintf@1.0.2 </tspan>
<tspan x="10" y="1466">    │ │ │ ├── json-schema@0.2.3 </tspan>
<tspan x="10" y="1482">    │ │ │ └── verror@1.3.6 </tspan>
<tspan x="10" y="1498">    │ │ └─┬ sshpk@1.13.0 </tspan>
<tspan x="10" y="1514">    │ │   ├── asn1@0.2.3 </tspan>
<tspan x="10" y="1530">    │ │   ├── assert-plus@1.0.0 </tspan>
<tspan x="10" y="1546">    │ │   ├── bcrypt-pbkdf@1.0.1 </tspan>
<tspan x="10" y="1562">    │ │   ├─┬ dashdash@1.14.1 </tspan>
<tspan x="10" y="1578">    │ │   │ └── assert-plus@1.0.0 </tspan>
<tspan x="10" y="1594">    │ │   ├── ecc-jsbn@0.1.1 </tspan>
<tspan x="10" y="1610">    │ │   ├─┬ getpass@0.1.6 </tspan>
<tspan x="10" y="1626">    │ │   │ └── assert-plus@1.0.0 </tspan>
<tspan x="10" y="1642">    │ │   ├── jodid25519@1.0.2 </tspan>
<tspan x="10" y="1658">    │ │   ├── jsbn@0.1.1 </tspan>
<tspan x="10" y="1674">    │ │   └── tweetnacl@0.14.5 </tspan>
<tspan x="10" y="1690">    │ ├── is-typedarray@1.0.0 </tspan>
<tspan x="10" y="1706">    │ ├── isstream@0.1.2 </tspan>
<tspan x="10" y="1722">    │ ├── json-stringify-safe@5.0.1 </tspan>
<tspan x="10" y="1738">    │ ├─┬ mime-types@2.1.15 </tspan>
<tspan x="10" y="1754">    │ │ └── mime-db@1.27.0 </tspan>
<tspan x="10" y="1770">    │ ├── oauth-sign@0.8.2 </tspan>
<tspan x="10" y="1786">    │ ├── performance-now@0.2.0 </tspan>
<tspan x="10" y="1802">    │ ├── qs@6.4.0 </tspan>
<tspan x="10" y="1818">    │ ├── safe-buffer@5.0.1 </tspan>
<tspan x="10" y="1834">    │ ├── stringstream@0.0.5 </tspan>
<tspan x="10" y="1850">    │ ├─┬ tough-cookie@2.3.2 </tspan>
<tspan x="10" y="1866">    │ │ └── punycode@1.4.1 </tspan>
<tspan x="10" y="1882">    │ ├── tunnel-agent@0.6.0 </tspan>
<tspan x="10" y="1898">    │ └── uuid@3.0.1 </tspan>
<tspan x="10" y="1914">    └── xtend@4.0.1</tspan>
</text>
</svg>
